<?xml version="1.0" encoding="utf-8"?>
<!-- Generator: Adobe Illustrator 17.1.0, SVG Export Plug-In . SVG Version: 6.00 Build 0)  -->
<!DOCTYPE svg PUBLIC "-//W3C//DTD SVG 1.1//EN" "http://www.w3.org/Graphics/SVG/1.1/DTD/svg11.dtd">
<svg version="1.1" id="Layer_1" xmlns="http://www.w3.org/2000/svg" xmlns:xlink="http://www.w3.org/1999/xlink" x="0px" y="0px"
	 viewBox="0 0 22 22" enable-background="new 0 0 22 22" xml:space="preserve">
<g>
	<path fill="#223E52" d="M8.76,9.715c0.282,0.07,0.564,0.094,0.845,0.094c1.573,0,3.006-0.939,3.006-2.63
		c0-0.939-0.54-2.067-1.62-2.067c-1.057,0-1.573,0.986-1.573,1.926v0.282H5.989c-0.141-2.842,2.137-5.072,4.979-5.072
		c2.888,0,5.049,2.161,5.049,5.049c0,2.301-1.526,4.321-3.781,4.838l-0.188,2.254H8.76V9.715z M12.541,17.723
		c0,1.151-0.939,2.113-2.09,2.113c-1.151,0-2.09-0.963-2.09-2.113c0-1.151,0.939-2.067,2.09-2.067
		C11.602,15.656,12.541,16.572,12.541,17.723z"/>
</g>
</svg>
