<?xml version="1.0" encoding="utf-8"?>
<!-- Generator: Adobe Illustrator 17.1.0, SVG Export Plug-In . SVG Version: 6.00 Build 0)  -->
<!DOCTYPE svg PUBLIC "-//W3C//DTD SVG 1.1//EN" "http://www.w3.org/Graphics/SVG/1.1/DTD/svg11.dtd">
<svg version="1.1" id="Layer_1" xmlns="http://www.w3.org/2000/svg" xmlns:xlink="http://www.w3.org/1999/xlink" x="0px" y="0px"
	 viewBox="0 0 22 22" enable-background="new 0 0 22 22" xml:space="preserve">
<path fill="#223E52" d="M6.51,3.616v10.097c0,0.176-0.121,0.329-0.293,0.369L2.368,14.98c-0.171,0.04-0.293,0.193-0.293,0.369v5.396
	c0,0.244,0.227,0.424,0.464,0.369l5.63-1.311c0.171-0.04,0.293-0.193,0.293-0.369V7.627c0-0.18,0.127-0.335,0.303-0.371l7.395-1.51
	c0.235-0.048,0.454,0.131,0.454,0.371v5.452c0,0.176-0.121,0.329-0.293,0.369l-3.849,0.898c-0.171,0.04-0.293,0.193-0.293,0.369
	v5.393c0,0.245,0.229,0.425,0.467,0.368l5.652-1.354c0.17-0.041,0.29-0.193,0.29-0.368V1.256c0-0.24-0.221-0.42-0.456-0.371
	L6.811,3.245C6.636,3.282,6.51,3.437,6.51,3.616z"/>
</svg>
