<?xml version="1.0" encoding="utf-8"?>
<!-- Generator: Adobe Illustrator 17.1.0, SVG Export Plug-In . SVG Version: 6.00 Build 0)  -->
<!DOCTYPE svg PUBLIC "-//W3C//DTD SVG 1.1//EN" "http://www.w3.org/Graphics/SVG/1.1/DTD/svg11.dtd">
<svg version="1.1" id="Layer_1" xmlns="http://www.w3.org/2000/svg" xmlns:xlink="http://www.w3.org/1999/xlink" x="0px" y="0px"
	 viewBox="0 0 22 22" enable-background="new 0 0 22 22" xml:space="preserve">
<path fill="#223E52" d="M6.332,3.271v10.568c0,0.184-0.127,0.344-0.306,0.386l-4.029,0.94c-0.179,0.042-0.306,0.202-0.306,0.386
	v5.648c0,0.255,0.238,0.444,0.486,0.386l5.893-1.373c0.179-0.042,0.306-0.202,0.306-0.386V7.47c0-0.188,0.133-0.351,0.317-0.388
	l7.741-1.58c0.246-0.05,0.476,0.138,0.476,0.388v5.707c0,0.184-0.127,0.344-0.306,0.386l-4.029,0.94
	c-0.179,0.042-0.306,0.202-0.306,0.386v5.644c0,0.256,0.239,0.445,0.489,0.385l5.916-1.417c0.178-0.043,0.304-0.202,0.304-0.385
	V0.801c0-0.251-0.231-0.439-0.477-0.388L6.647,2.883C6.463,2.922,6.332,3.084,6.332,3.271z"/>
</svg>
