<?xml version="1.0" encoding="utf-8"?>
<!-- Generator: Adobe Illustrator 17.1.0, SVG Export Plug-In . SVG Version: 6.00 Build 0)  -->
<!DOCTYPE svg PUBLIC "-//W3C//DTD SVG 1.1//EN" "http://www.w3.org/Graphics/SVG/1.1/DTD/svg11.dtd">
<svg version="1.1" id="Layer_1" xmlns="http://www.w3.org/2000/svg" xmlns:xlink="http://www.w3.org/1999/xlink" x="0px" y="0px"
	 viewBox="0 350.759 612 90.483" enable-background="new 0 350.759 612 90.483" xml:space="preserve">
<g>
	<path fill="#F7941E" d="M2.07,439.171c-1.657,0-2.485-1.034-1.864-2.692l13.458-39.133c4.349-12.838,9.732-26.503,9.524-29.609
		c0-1.449-0.415-2.898-2.485-2.898c-2.692,0-12.424,10.352-14.079,12.837c-0.621,0.828-1.449,0.828-2.277,0l-2.277-2.07
		c-0.621-0.621-0.828-1.243-0.415-1.864c3.106-4.968,18.013-22.982,34.578-22.982c8.903,0,11.594,3.106,11.594,8.075
		c0,6.211-11.181,29.609-12.837,33.956l2.07,1.449c8.49-14.286,24.433-43.48,44.103-43.48c6.832,0,13.043,5.177,13.043,10.145
		c0,6.211-8.075,26.295-10.56,32.714l1.864,1.449c11.181-16.771,25.675-44.308,45.965-44.308c8.696,0,12.63,7.66,12.63,11.594
		c0,6.832-5.59,22.775-10.766,37.476c-4.141,11.802-7.868,20.913-7.868,23.811c0.206,1.657,1.034,2.9,2.485,2.9
		c4.968,0,13.666-13.045,14.701-14.701c0.621-1.034,1.243-1.034,1.656-0.828l2.9,2.07c0.828,0.621,0.828,1.243,0.206,2.693
		c-0.621,1.449-14.907,25.467-37.684,25.467c-6.832,0-9.317-4.141-9.524-7.453c-0.206-3.934,3.519-15.53,11.181-35.612
		c6.419-16.979,8.283-22.775,8.283-26.503c0-2.277-1.243-3.934-3.726-3.934c-3.313,0-17.599,17.392-30.85,37.269
		c-1.449,2.279-4.555,7.455-7.041,14.701l-6.419,18.222c-0.415,1.034-1.243,1.243-2.898,1.243H51.144
		c-1.864,0-2.692-0.828-2.07-2.692l12.424-34.371c5.177-14.286,9.524-26.916,9.524-30.229c0-2.279-0.621-4.141-3.519-4.141
		c-3.519,0-17.807,16.564-29.607,34.578c-2.692,3.934-5.798,9.732-8.696,17.186L22.36,437.72c-0.415,1.243-1.449,1.449-2.898,1.449
		H2.07V439.171z"/>
	<g>
		<g>
			<path fill="#F7941E" d="M262.957,399.798h-61.988c0,4.467,1.675,10.424,5.026,14.144c4.095,4.468,9.68,5.213,13.775,5.213
				c3.911,0,8.006-0.744,10.797-2.422c0.371-0.185,3.537-2.232,5.771-6.887l25.317,2.608c-3.724,11.726-11.168,17.868-16.01,20.848
				c-8.002,4.84-16.937,6.142-26.246,6.142c-12.471,0-23.456-2.235-33.136-11.913c-7.258-7.262-12.471-18.243-12.471-32.017
				c0-11.913,4.282-24.201,12.657-32.765c10.053-10.051,22.524-11.913,31.83-11.913c9.308,0,22.712,1.675,32.948,12.474
				c9.866,10.424,11.73,23.453,11.73,33.694V399.798z M238.199,383.786c-0.187-0.743-1.489-5.956-5.398-9.68
				c-2.98-2.793-7.262-4.653-12.657-4.653c-6.887,0-10.984,2.793-13.59,5.398c-2.047,2.235-3.909,5.213-4.653,8.935H238.199z"/>
			<path fill="#F7941E" d="M335.643,414.316h39.278v22.337h-84.696l43.185-60.684h-36.67V353.63h81.905L335.643,414.316z"/>
			<path fill="#F7941E" d="M449.046,414.316h39.278v22.337h-84.696l43.185-60.684h-36.67V353.63h81.905L449.046,414.316z"/>
		</g>
	</g>
	<path fill="#F7941E" d="M612,372.332h-10.196V361.73h-11.473v-10.049h-46.34v10.049h-11.339v10.602h-10.326v46.34h10.326v10.458
		h11.339v10.194h46.34V429.13h11.473v-10.458H612L612,372.332L612,372.332z M579.179,407.52v9.439h-24.032v-9.439h-10.458v-24.179
		h10.458v-9.296h24.032v9.296h10.455v24.179C589.634,407.52,579.179,407.52,579.179,407.52z"/>
</g>
</svg>
