<?xml version="1.0" encoding="utf-8"?>
<!-- Generator: Adobe Illustrator 17.1.0, SVG Export Plug-In . SVG Version: 6.00 Build 0)  -->
<!DOCTYPE svg PUBLIC "-//W3C//DTD SVG 1.1//EN" "http://www.w3.org/Graphics/SVG/1.1/DTD/svg11.dtd">
<svg version="1.1" id="Layer_1" xmlns="http://www.w3.org/2000/svg" xmlns:xlink="http://www.w3.org/1999/xlink" x="0px" y="0px"
	 viewBox="0 0 337.879 49.954" enable-background="new 0 0 337.879 49.954" xml:space="preserve">
<g>
	<path fill="#FFD64F" d="M1.143,48.811c-0.915,0-1.372-0.571-1.029-1.486l7.43-21.605c2.401-7.088,5.373-14.632,5.258-16.347
		c0-0.8-0.229-1.6-1.372-1.6c-1.486,0-6.859,5.715-7.773,7.087c-0.343,0.457-0.8,0.457-1.257,0l-1.257-1.143
		c-0.343-0.343-0.457-0.686-0.229-1.029C2.629,9.945,10.859,0,20.004,0c4.915,0,6.401,1.715,6.401,4.458
		c0,3.429-6.173,16.347-7.087,18.747l1.143,0.8C25.148,16.118,33.95,0,44.81,0c3.772,0,7.201,2.858,7.201,5.601
		c0,3.429-4.458,14.517-5.83,18.061l1.029,0.8C53.383,15.203,61.385,0,72.587,0c4.801,0,6.973,4.229,6.973,6.401
		c0,3.772-3.086,12.574-5.944,20.69c-2.286,6.516-4.344,11.546-4.344,13.146c0.114,0.915,0.571,1.601,1.372,1.601
		c2.743,0,7.545-7.202,8.116-8.116c0.343-0.571,0.686-0.571,0.914-0.457l1.601,1.143c0.457,0.343,0.457,0.686,0.114,1.487
		c-0.343,0.8-8.23,14.06-20.805,14.06c-3.772,0-5.144-2.286-5.258-4.115c-0.114-2.172,1.943-8.574,6.173-19.661
		c3.544-9.374,4.573-12.574,4.573-14.632c0-1.257-0.686-2.172-2.057-2.172c-1.829,0-9.716,9.602-17.032,20.576
		c-0.8,1.258-2.515,4.116-3.887,8.116l-3.544,10.06c-0.229,0.571-0.686,0.686-1.6,0.686h-9.716c-1.029,0-1.486-0.457-1.143-1.486
		l6.859-18.976c2.858-7.887,5.258-14.86,5.258-16.689c0-1.258-0.343-2.286-1.943-2.286c-1.943,0-9.831,9.145-16.346,19.09
		c-1.486,2.172-3.201,5.373-4.801,9.488L12.345,48.01c-0.229,0.686-0.8,0.8-1.6,0.8H1.143z"/>
	<g>
		<g>
			<path fill="#FFD64F" d="M145.176,27.074h-34.223c0,2.466,0.925,5.755,2.775,7.809c2.261,2.467,5.344,2.878,7.605,2.878
				c2.159,0,4.42-0.411,5.961-1.337c0.205-0.102,1.953-1.232,3.186-3.802l13.977,1.44c-2.056,6.474-6.166,9.865-8.839,11.51
				c-4.418,2.672-9.351,3.391-14.49,3.391c-6.885,0-12.95-1.234-18.294-6.577c-4.007-4.009-6.885-10.072-6.885-17.676
				c0-6.577,2.364-13.361,6.988-18.089c5.55-5.549,12.435-6.577,17.573-6.577c5.139,0,12.539,0.925,18.19,6.887
				c5.447,5.755,6.476,12.948,6.476,18.602V27.074z M131.507,18.234c-0.103-0.41-0.822-3.288-2.98-5.344
				c-1.645-1.542-4.009-2.569-6.988-2.569c-3.802,0-6.064,1.542-7.503,2.98c-1.13,1.234-2.158,2.878-2.569,4.933H131.507z"/>
			<path fill="#FFD64F" d="M185.305,35.089h21.685v12.332h-46.76l23.842-33.503h-20.245V1.585h45.219L185.305,35.089z"/>
			<path fill="#FFD64F" d="M247.914,35.089h21.685v12.332h-46.76l23.842-33.503h-20.245V1.585h45.219L247.914,35.089z"/>
		</g>
	</g>
	<path fill="#FFD64F" d="M337.879,11.91h-5.629V6.057h-6.334V0.509h-25.584v5.548h-6.26v5.853h-5.701v25.584h5.701v5.774h6.26v5.628
		h25.584v-5.628h6.334v-5.774h5.629V11.91z M319.759,31.337v5.211h-13.268v-5.211h-5.774V17.988h5.774v-5.132h13.268v5.132h5.772
		v13.349H319.759z"/>
</g>
</svg>
