<?xml version="1.0" encoding="utf-8"?>
<!-- Generator: Adobe Illustrator 17.1.0, SVG Export Plug-In . SVG Version: 6.00 Build 0)  -->
<!DOCTYPE svg PUBLIC "-//W3C//DTD SVG 1.1//EN" "http://www.w3.org/Graphics/SVG/1.1/DTD/svg11.dtd">
<svg version="1.1" id="Layer_1" xmlns="http://www.w3.org/2000/svg" xmlns:xlink="http://www.w3.org/1999/xlink" x="0px" y="0px"
	 viewBox="0 0 22 22" enable-background="new 0 0 22 22" xml:space="preserve">
<path fill="#223E52" d="M11.34,1.794l2.638,5.346c0.055,0.112,0.162,0.19,0.286,0.208l5.899,0.857
	c0.311,0.045,0.435,0.428,0.21,0.647l-4.269,4.161c-0.089,0.087-0.13,0.213-0.109,0.336l1.008,5.875
	c0.053,0.31-0.272,0.546-0.551,0.4l-5.276-2.774c-0.111-0.058-0.243-0.058-0.353,0l-5.276,2.774c-0.278,0.146-0.604-0.09-0.551-0.4
	l1.008-5.875c0.021-0.123-0.02-0.249-0.109-0.336L1.626,8.851c-0.225-0.22-0.101-0.602,0.21-0.647l5.899-0.857
	c0.124-0.018,0.23-0.096,0.286-0.208l2.638-5.346C10.799,1.512,11.201,1.512,11.34,1.794z"/>
</svg>
