<?xml version="1.0" encoding="utf-8"?>
<!-- Generator: Adobe Illustrator 17.1.0, SVG Export Plug-In . SVG Version: 6.00 Build 0)  -->
<!DOCTYPE svg PUBLIC "-//W3C//DTD SVG 1.1//EN" "http://www.w3.org/Graphics/SVG/1.1/DTD/svg11.dtd">
<svg version="1.1" id="Layer_1" xmlns="http://www.w3.org/2000/svg" xmlns:xlink="http://www.w3.org/1999/xlink" x="0px" y="0px"
	 viewBox="0 0 22 22" enable-background="new 0 0 22 22" xml:space="preserve">
<path fill="#223E52" d="M118.657,2.338l14.413,8.321c0.262,0.151,0.262,0.53,0,0.682l-14.413,8.321
	c-0.302,0.174-0.665-0.102-0.578-0.439l2.101-8.124c0.017-0.065,0.017-0.132,0-0.197l-2.101-8.124
	C117.992,2.439,118.355,2.164,118.657,2.338z"/>
<path fill="#223E52" d="M11.34,1.794l2.638,5.346c0.055,0.112,0.162,0.19,0.286,0.208l5.899,0.857
	c0.311,0.045,0.435,0.428,0.21,0.647l-4.269,4.161c-0.089,0.087-0.13,0.213-0.109,0.336l1.008,5.875
	c0.053,0.31-0.272,0.546-0.551,0.4l-5.276-2.774c-0.111-0.058-0.243-0.058-0.353,0l-5.276,2.774c-0.278,0.146-0.604-0.09-0.551-0.4
	l1.008-5.875c0.021-0.123-0.02-0.249-0.109-0.336L1.626,8.851c-0.225-0.22-0.101-0.602,0.21-0.647l5.899-0.857
	c0.124-0.018,0.23-0.096,0.286-0.208l2.638-5.346C10.799,1.512,11.201,1.512,11.34,1.794z"/>
<path fill="#223E52" d="M187.753,2.547l-7.363,8.347c-0.157,0.178-0.437,0.171-0.585-0.015l-3.555-4.468
	c-0.158-0.199-0.462-0.19-0.61,0.016l-3.299,3.818c-0.101,0.143-0.093,0.336,0.021,0.469l7.444,8.734
	c0.15,0.176,0.421,0.179,0.575,0.007l11.254-12.568c0.119-0.133,0.13-0.33,0.027-0.476l-3.31-3.833
	C188.207,2.378,187.915,2.363,187.753,2.547z"/>
<path fill="#223E52" d="M63.51,3.616v10.097c0,0.176-0.121,0.329-0.293,0.369l-3.849,0.898c-0.171,0.04-0.293,0.193-0.293,0.369
	v5.396c0,0.244,0.227,0.424,0.464,0.369l5.63-1.311c0.171-0.04,0.293-0.193,0.293-0.369V7.627c0-0.18,0.127-0.335,0.303-0.371
	l7.395-1.51c0.235-0.048,0.454,0.131,0.454,0.371v5.452c0,0.176-0.121,0.329-0.293,0.369l-3.849,0.898
	c-0.171,0.04-0.293,0.193-0.293,0.369v5.393c0,0.245,0.229,0.425,0.467,0.368l5.652-1.354c0.17-0.041,0.29-0.193,0.29-0.368V1.256
	c0-0.24-0.221-0.42-0.456-0.371l-11.324,2.36C63.636,3.282,63.51,3.437,63.51,3.616z"/>
</svg>
