<?xml version="1.0" encoding="utf-8"?>
<!-- Generator: Adobe Illustrator 17.1.0, SVG Export Plug-In . SVG Version: 6.00 Build 0)  -->
<!DOCTYPE svg PUBLIC "-//W3C//DTD SVG 1.1//EN" "http://www.w3.org/Graphics/SVG/1.1/DTD/svg11.dtd">
<svg version="1.1" id="Layer_1" xmlns="http://www.w3.org/2000/svg" xmlns:xlink="http://www.w3.org/1999/xlink" x="0px" y="0px"
	 viewBox="0 0 22 22" enable-background="new 0 0 22 22" xml:space="preserve">
<g>
	<path fill="#223E52" d="M10.266,0.655l10.821,6.247c0.24,0.139,0.24,0.485,0,0.624l-10.821,6.247
		c-0.216,0.125-0.475-0.072-0.412-0.314l1.58-6.111c0.023-0.088,0.023-0.181,0-0.269l-1.58-6.111
		C9.791,0.728,10.05,0.531,10.266,0.655z"/>
	<g>
		<path fill="#223E52" d="M15.929,11.468v6.471c0,0.047-0.038,0.085-0.085,0.085H6.166c-0.047,0-0.085-0.038-0.085-0.085V8.423
			c0-0.047,0.038-0.085,0.085-0.085h4.149l0.226-0.872c0.043-0.165,0.043-0.338,0-0.503L10.316,6.09H4.349
			c-0.285,0-0.515,0.231-0.515,0.515v13.151c0,0.285,0.231,0.515,0.515,0.515h13.313c0.285,0,0.515-0.231,0.515-0.515V10.17
			L15.929,11.468z"/>
	</g>
</g>
</svg>
